<?xml version="1.0" standalone="no"?>
<!DOCTYPE svg PUBLIC "-//W3C//DTD SVG 20010904//EN"
 "http://www.w3.org/TR/2001/REC-SVG-20010904/DTD/svg10.dtd">
<svg version="1.0" xmlns="http://www.w3.org/2000/svg"
 width="320.000000pt" height="320.000000pt" viewBox="0 0 320.000000 320.000000"
 preserveAspectRatio="xMidYMid meet">
<metadata>
Created by potrace 1.14, written by Peter Selinger 2001-2017
</metadata>
<g transform="translate(0.000000,320.000000) scale(0.100000,-0.100000)"
fill="#000000" stroke="none">
<path d="M820 3132 l0 -69 49 -7 c60 -8 126 -50 195 -124 27 -29 51 -51 53
-48 2 2 -10 32 -26 66 -25 51 -27 59 -11 45 11 -10 20 -24 20 -32 0 -8 4 -12
9 -9 5 3 15 -2 22 -12 13 -16 13 -16 -5 -2 -18 14 -19 13 -13 -3 4 -10 7 -23
7 -28 0 -6 4 -8 8 -5 5 3 8 -5 7 -17 -1 -12 1 -27 6 -33 11 -13 -21 -84 -38
-84 -7 0 -27 -13 -45 -29 -31 -28 -31 -29 -10 -35 15 -5 31 -1 50 12 57 40
111 31 112 -20 0 -10 5 -18 10 -18 18 0 10 -29 -10 -35 -28 -9 -60 -67 -59
-106 l0 -34 16 32 16 31 28 -20 c27 -20 29 -20 53 -4 24 15 30 14 27 -7 -1 -4
12 -10 29 -14 17 -3 33 -10 36 -14 3 -5 10 -7 15 -3 5 3 8 1 7 -4 -5 -15 86
-123 99 -117 7 2 13 1 13 -3 0 -5 9 -18 20 -30 12 -12 16 -22 11 -22 -5 0 -13
5 -16 10 -3 6 -10 10 -15 10 -5 0 13 -22 40 -50 28 -27 50 -56 50 -63 0 -8 7
-17 15 -20 32 -13 39 -135 14 -256 -21 -105 -62 -159 -138 -186 -52 -18 -86
-19 -132 -4 -65 22 -67 34 -12 62 50 26 135 91 142 109 2 5 -27 -6 -64 -26
-71 -37 -155 -50 -155 -23 0 6 -8 0 -18 -15 -13 -23 -23 -28 -52 -27 -23 1
-28 3 -12 6 12 2 20 9 17 14 -4 5 5 14 19 21 14 6 26 17 26 24 0 8 22 25 48
38 27 13 54 32 62 41 15 18 48 37 125 73 50 23 38 24 -45 1 -25 -6 -50 -18
-56 -25 -6 -8 -14 -11 -17 -7 -4 3 -7 2 -7 -3 0 -5 -12 -10 -28 -11 -46 -3
-100 -31 -114 -60 -43 -84 -71 -118 -90 -107 -7 4 -40 29 -73 54 -33 26 -81
59 -107 74 -27 15 -48 32 -48 38 0 5 -4 6 -10 3 -5 -3 -19 9 -30 27 l-20 33 0
-402 c0 -393 0 -402 20 -416 21 -15 23 -36 5 -49 -5 -4 -13 -2 -17 5 -5 7 -8
1 -8 -15 0 -16 5 -28 10 -28 6 0 10 -5 10 -11 0 -5 -4 -7 -10 -4 -7 4 -10
-192 -10 -579 l0 -586 780 0 779 0 1 320 0 320 -24 6 c-14 3 -27 12 -30 20 -6
16 10 19 19 4 14 -22 35 -10 35 21 0 24 -4 30 -15 25 -9 -3 -15 0 -15 10 0 8
4 13 9 10 5 -3 12 1 15 10 3 9 6 282 6 607 l0 591 -22 23 c-17 19 -18 23 -6
23 9 0 19 -6 21 -12 3 -7 6 7 6 30 1 36 -3 45 -19 49 -26 7 -26 23 0 23 11 0
20 5 20 10 0 6 -6 10 -14 10 -9 0 -13 11 -12 33 1 30 -2 32 -34 35 -19 2 -52
-2 -72 -9 l-38 -12 -69 74 c-39 41 -75 74 -81 74 -14 0 -50 56 -43 68 3 4 -2
16 -11 26 -9 10 -18 32 -20 49 -3 16 -9 40 -16 51 -6 12 -7 21 -3 21 7 0 -57
62 -104 100 -75 61 -210 241 -197 262 4 7 3 8 -4 4 -6 -4 -19 5 -28 19 -9 14
-22 25 -29 25 -8 0 -17 9 -20 21 -5 15 -13 19 -27 16 -14 -4 -16 -2 -9 6 7 9
2 19 -14 33 -13 12 -27 19 -30 16 -3 -3 -5 0 -5 7 0 15 -40 50 -58 51 -7 0
-12 6 -10 13 2 7 -23 36 -54 64 l-57 51 -250 1 -251 1 0 -68z m50 48 c0 -5 -2
-10 -4 -10 -3 0 -8 5 -11 10 -3 6 -1 10 4 10 6 0 11 -4 11 -10z m330 -25 c7
-8 9 -15 6 -15 -4 0 -14 7 -22 15 -9 8 -11 15 -6 15 5 0 15 -7 22 -15z m-266
-7 c-5 -8 -2 -9 10 -5 9 4 15 3 12 -1 -2 -4 13 -16 34 -26 22 -10 38 -24 37
-30 -1 -6 4 -10 11 -8 8 1 11 -2 6 -9 -5 -9 -2 -10 9 -6 9 3 19 3 21 -2 12
-18 -32 -6 -64 19 -19 15 -50 35 -67 45 -23 13 -29 21 -20 27 17 11 19 10 11
-4z m166 -34 c0 -2 -9 0 -20 6 -11 6 -20 13 -20 16 0 2 9 0 20 -6 11 -6 20
-13 20 -16z m141 7 c7 11 9 11 9 1 0 -7 4 -11 9 -7 5 3 13 -4 16 -16 4 -13 12
-18 21 -15 8 3 13 2 10 -3 -3 -5 1 -12 10 -15 8 -3 12 -11 9 -17 -4 -6 1 -13
11 -16 16 -4 132 -163 120 -163 -2 0 -23 25 -46 55 -28 37 -47 52 -53 46 -6
-6 -3 -22 10 -44 11 -19 21 -45 21 -60 0 -24 -3 -23 -47 21 -25 26 -71 70
-101 99 -43 41 -50 52 -34 50 12 0 21 -6 20 -12 -2 -5 -1 -7 1 -2 3 4 9 7 15
7 6 0 4 -7 -3 -17 -12 -15 -12 -16 3 -10 10 3 24 0 33 -9 13 -14 15 -13 15 6
0 14 -5 20 -13 17 -15 -5 -42 29 -29 37 10 6 78 -54 75 -65 -2 -5 6 -9 17 -9
18 0 19 2 8 20 -7 11 -18 20 -24 20 -7 0 -14 9 -17 21 -3 12 -9 19 -14 16 -11
-7 -46 19 -40 30 3 4 -7 9 -21 10 -25 1 -26 0 -7 -13 10 -8 14 -14 8 -14 -6 0
-16 7 -23 15 -7 8 -9 15 -5 15 4 0 -3 9 -16 20 l-24 20 34 -16 c28 -14 35 -14
42 -3z m-2 -56 c11 3 11 1 -3 -9 -16 -13 -21 -13 -42 1 -31 20 -30 25 3 12 14
-5 34 -7 42 -4z m179 -181 c18 -24 30 -49 27 -55 -4 -5 -15 5 -24 23 -10 18
-28 51 -40 73 -12 22 -16 32 -9 21 7 -10 28 -38 46 -62z m-98 -5 c0 -5 6 -7
13 -3 9 5 9 4 0 -6 -6 -7 -16 -9 -22 -6 -14 9 -14 26 -1 26 6 0 10 -5 10 -11z
m297 -4 c9 -24 -1 -27 -15 -5 -8 13 -8 20 -2 20 6 0 13 -7 17 -15z m-298 -69
c-3 -3 -11 5 -18 17 -13 21 -12 21 5 5 10 -10 16 -20 13 -22z m1005 -662 c20
-19 20 -30 2 -37 -24 -9 -86 8 -86 24 0 10 35 27 57 28 6 1 19 -6 27 -15z
m-1374 -386 c0 -7 -5 -6 -13 1 -8 6 -17 8 -21 4 -4 -4 -4 0 0 10 5 14 9 15 20
6 8 -6 14 -16 14 -21z m626 -76 c-13 -12 -18 9 -10 45 l8 38 4 -39 c2 -21 1
-41 -2 -44z m62 25 c6 -7 14 -28 17 -47 3 -18 8 -37 11 -42 7 -11 -3 -10 -29
3 -19 9 -18 7 3 -10 14 -11 31 -19 37 -16 7 2 16 -7 19 -20 4 -15 13 -25 24
-25 10 0 23 -7 30 -15 6 -8 15 -13 18 -12 4 1 7 -1 7 -5 0 -4 10 -15 23 -23
12 -9 20 -21 16 -26 -3 -5 -1 -8 4 -7 6 2 10 -1 10 -5 1 -5 9 -16 20 -25 10
-9 31 -36 46 -59 14 -24 33 -43 41 -43 8 0 15 -5 15 -11 0 -5 -5 -7 -12 -3 -6
4 -2 -9 11 -29 l22 -36 -23 -41 -23 -40 28 -50 c15 -28 27 -56 27 -63 -1 -6
-6 1 -13 16 -7 17 -28 35 -54 47 -48 21 -62 16 -30 -12 19 -17 18 -17 -10 1
-20 14 -34 18 -38 11 -4 -6 -30 -8 -68 -5 -57 6 -60 5 -43 -9 11 -9 17 -19 13
-22 -12 -13 -104 -17 -111 -5 -4 6 -3 11 3 11 6 0 8 7 5 15 -4 8 -12 15 -18
15 -15 0 -66 55 -66 72 0 6 -10 23 -22 36 -13 14 -17 22 -10 18 6 -4 12 -3 12
3 0 6 -8 15 -19 20 -10 6 -21 20 -24 31 -5 18 -3 19 10 8 14 -12 15 -11 5 9
-19 34 -14 39 13 13 14 -13 25 -18 25 -12 0 6 -5 14 -10 17 -6 4 -7 12 -4 18
4 7 3 9 -1 4 -10 -9 -65 41 -65 59 0 7 -12 22 -27 34 l-28 22 29 -17 c28 -17
29 -17 23 4 -3 11 -2 23 3 26 4 2 6 22 5 44 -2 32 3 46 31 77 18 22 34 41 34
44 0 3 5 12 10 20 8 12 14 10 42 -15 18 -17 24 -20 14 -8 -17 21 -16 32 9 60
13 16 20 16 33 0z m-253 -217 c10 -11 16 -20 13 -20 -3 0 -13 9 -23 20 -10 11
-16 20 -13 20 3 0 13 -9 23 -20z m653 -35 c-3 -3 -9 2 -12 12 -6 14 -5 15 5 6
7 -7 10 -15 7 -18z m39 -67 c-3 -8 -6 -5 -6 6 -1 11 2 17 5 13 3 -3 4 -12 1
-19z m-97 -30 c0 -6 7 -8 15 -4 16 6 18 -7 6 -39 -7 -18 -10 -17 -30 15 -25
41 -26 51 -6 44 8 -4 15 -11 15 -16z m-13 -55 c-4 -3 -1 -13 6 -22 11 -14 10
-14 -5 -2 -16 12 -16 31 -1 31 4 0 3 -3 0 -7z m-17 -219 c0 -8 -4 -12 -10 -9
-5 3 -10 10 -10 16 0 5 5 9 10 9 6 0 10 -7 10 -16z m420 -20 c0 -8 -19 -13
-24 -6 -3 5 1 9 9 9 8 0 15 -2 15 -3z m-420 -27 c0 -7 7 -24 14 -40 14 -26 14
-27 -4 -17 -23 12 -35 30 -21 30 7 0 7 8 1 26 -7 16 -7 23 0 19 6 -3 10 -12
10 -18z m387 7 c-3 -3 -12 -4 -19 -1 -8 3 -5 6 6 6 11 1 17 -2 13 -5z m-337
-34 c0 -5 -2 -10 -4 -10 -3 0 -8 5 -11 10 -3 6 -1 10 4 10 6 0 11 -4 11 -10z
m130 -12 c0 -9 4 -8 11 2 7 11 12 12 15 3 3 -7 12 -9 21 -6 11 4 14 2 9 -5
-11 -18 -73 -15 -73 3 0 8 4 15 9 15 4 0 8 -6 8 -12z m-30 -12 c0 -2 -7 -6
-15 -10 -8 -3 -15 -1 -15 4 0 6 7 10 15 10 8 0 15 -2 15 -4z m186 -43 c-3 -3
6 -14 19 -25 29 -22 32 -46 9 -55 -19 -7 -33 12 -27 37 3 10 0 21 -6 24 -6 4
-11 14 -11 22 0 8 5 12 11 9 6 -4 8 -9 5 -12z m-67 -12 c24 -24 17 -59 -16
-74 -17 -8 -20 -13 -11 -19 10 -6 10 -8 0 -8 -19 0 -72 32 -72 43 0 5 -7 4
-15 -3 -8 -7 -15 -19 -15 -27 0 -17 -22 -12 -28 7 -3 8 0 10 8 5 10 -6 12 -1
7 22 -6 30 -5 31 29 30 22 -1 33 -5 30 -13 -2 -6 5 -19 16 -29 20 -17 21 -17
14 0 -8 22 2 57 15 50 5 -4 9 -1 9 4 0 6 -5 11 -11 11 -5 0 -7 5 -4 10 9 15
23 12 44 -9z m-99 -12 c0 -5 -4 -9 -10 -9 -5 0 -10 7 -10 16 0 8 5 12 10 9 6
-3 10 -10 10 -16z m-60 -19 c0 -5 -2 -10 -4 -10 -3 0 -8 5 -11 10 -3 6 -1 10
4 10 6 0 11 -4 11 -10z m280 -50 c0 -5 -7 -10 -16 -10 -8 0 -12 5 -9 10 3 6
10 10 16 10 5 0 9 -4 9 -10z m-159 -110 c20 0 26 -15 9 -25 -17 -11 -50 14
-43 32 4 11 8 13 11 5 2 -7 12 -12 23 -12z m-51 -57 c0 -7 -4 -13 -9 -13 -10
0 -21 25 -21 48 1 15 3 14 15 -2 8 -11 15 -26 15 -33z m138 5 c15 -15 -3 -48
-28 -48 -25 0 -33 15 -20 40 12 22 30 26 48 8z m-527 -25 c13 -17 13 -17 -6
-3 -11 8 -22 16 -24 17 -2 2 0 3 6 3 6 0 17 -8 24 -17z m339 -3 c0 -5 -4 -10
-10 -10 -5 0 -10 5 -10 10 0 6 5 10 10 10 6 0 10 -4 10 -10z m185 -239 c22
-29 45 -49 52 -47 7 3 13 -1 13 -10 0 -8 9 -24 20 -36 11 -12 18 -23 16 -26
-6 -5 -101 91 -122 123 -13 20 -18 22 -37 12 -12 -7 -32 -22 -45 -34 -22 -23
-69 -33 -57 -12 4 6 14 8 22 5 8 -3 11 -2 8 4 -3 5 4 14 15 20 13 7 19 18 16
26 -3 8 1 14 8 14 24 0 26 29 6 83 -28 74 -24 72 13 -4 18 -37 50 -89 72 -118z
m-530 129 c3 -5 1 -10 -4 -10 -6 0 -11 5 -11 10 0 6 2 10 4 10 3 0 8 -4 11
-10z m603 -12 c2 -8 -4 -15 -13 -15 -8 0 -15 9 -15 20 0 22 23 18 28 -5z
m-211 -28 c-1 -12 -5 -16 -10 -11 -5 5 -6 14 -3 20 11 16 15 13 13 -9z m-173
-36 c3 -8 2 -12 -4 -9 -6 3 -10 10 -10 16 0 14 7 11 14 -7z m300 -156 c16 -11
-6 -10 -23 1 -8 5 -10 14 -5 22 6 10 9 10 12 -1 3 -8 10 -18 16 -22z m41 2
c-3 -5 -11 -10 -16 -10 -6 0 -7 5 -4 10 3 6 11 10 16 10 6 0 7 -4 4 -10z
m-142 -62 c6 -17 -10 -58 -23 -58 -6 0 -19 -15 -31 -32 l-20 -33 7 40 c8 49
20 65 48 66 11 0 15 3 9 6 -15 5 -17 23 -4 23 5 0 11 -6 14 -12z m144 -23 c9
-25 -4 -29 -17 -6 -7 15 -7 21 0 21 6 0 13 -7 17 -15z m-517 -29 c0 -8 -4 -18
-10 -21 -5 -3 -10 3 -10 14 0 12 5 21 10 21 6 0 10 -6 10 -14z m575 -26 c3 -5
1 -10 -4 -10 -6 0 -11 5 -11 10 0 6 2 10 4 10 3 0 8 -4 11 -10z"/>
<path d="M1310 2956 c0 -2 7 -7 16 -10 8 -3 12 -2 9 4 -6 10 -25 14 -25 6z"/>
<path d="M1510 1416 c0 -2 8 -10 18 -17 15 -13 16 -12 3 4 -13 16 -21 21 -21
13z"/>
<path d="M1897 1152 c-3 -4 3 -13 14 -20 10 -7 19 -8 19 -3 0 13 -28 33 -33
23z"/>
<path d="M2203 918 c3 -10 2 -20 -3 -23 -6 -4 -10 -10 -10 -16 0 -16 19 -10
29 10 8 14 7 22 -6 32 -15 12 -16 12 -10 -3z"/>
<path d="M2117 219 c7 -7 15 -10 18 -7 3 3 -2 9 -12 12 -14 6 -15 5 -6 -5z"/>
<path d="M2120 3195 c1 -33 259 -1034 259 -1007 1 38 -236 992 -250 1007 -6 5
-9 5 -9 0z"/>
<path d="M820 2448 c0 -15 8 -18 48 -18 27 0 57 -6 68 -15 41 -31 48 -8 9 31
-21 21 -33 25 -75 23 -41 -2 -50 -6 -50 -21z"/>
<path d="M841 2396 c2 -2 21 -6 42 -10 27 -5 37 -4 32 3 -3 6 -22 11 -42 11
-20 0 -34 -2 -32 -4z"/>
<path d="M843 2358 c-19 -9 -23 -19 -23 -55 0 -35 3 -43 18 -43 30 0 55 35 48
66 -7 26 -6 26 24 20 23 -4 30 -2 28 7 -6 16 -67 19 -95 5z"/>
<path d="M1268 2199 c-9 -5 -19 -22 -23 -38 -3 -16 -12 -31 -18 -33 -18 -6
-70 -2 -89 6 -30 13 -22 -30 12 -66 l30 -33 30 35 c17 19 35 51 40 71 6 21 19
40 32 46 12 5 17 12 12 15 -5 4 -17 2 -26 -3z"/>
</g>
</svg>
