<?xml version="1.0" encoding="utf-8"?>
<!-- Designed by Vexels.com - 2019 All Rights Reserved - https://vexels.com/terms-and-conditions/  -->
<svg version="1.1" id="Layer_1" xmlns="http://www.w3.org/2000/svg" xmlns:xlink="http://www.w3.org/1999/xlink" x="0px" y="0px"
	 viewBox="0 0 1200 1200" enable-background="new 0 0 1200 1200" xml:space="preserve">
<path fill="#B74EA1" d="M298.876,574.503c0.665,3.54,4.076,21.394,8.097,13.3c0.942-1.895-1.388-7.301-1.647-9.454
	c-0.352-2.93-0.412-5.94-0.49-8.889c-0.425-16.043-0.404-31.918,4.322-47.429c4.593-15.074,9.368-30.214,18.449-43.256
	c5.889-8.457,12.546-16.024,18.827-24.11c-7.972,17.807-14.332,36.098-18.739,55.15c-2.642,11.422-5.048,23.42-4.475,35.226
	c0.38,7.82,1.148,21.746,4.812,28.36c-1.022,5.276,6.919,23.178,9.451,28.724c4.165,9.125,10.348,17.347,16.017,25.571
	c4.132,5.994,8.177,12.884,13.875,17.54c4.894,3.999,10.462,7.206,15.333,11.208c1.475,1.212,4.119,5.505,6.59,5.054
	c3.676-0.67,2.924-2.657,1.526-5.102c-0.688-1.203-2.708-2.11-3.671-3.093c-10.17-10.369-15.556-25.591-22.311-38.247
	c12.631,17.125,27.496,31.911,43.469,45.944c14.942,13.128,33.412,24.849,51.533,33.109c1.27,0.579,21.534,9.67,22.082,2.655
	c0.253-3.24-7.517-3.6-9.736-4.665c-6.128-2.941-11.603-7.783-16.683-12.244c-17.436-15.312-29.699-35.326-40.791-55.407
	c-5.471-9.906-10.368-19.8-14.788-30.19c-4.625-10.873-6.255-22.207-10.245-33.166c9.997,12.323,19.155,25.189,31.32,35.555
	c6.058,5.162,12.243,10.21,18.088,15.608c6.859,6.335,16.384,16.413,25.233,19.811c4.703,1.806,7.95-0.899,3.344-5.027
	c-2.646-2.372-6.691-3.698-9.575-6.028c-7.889-6.374-14.621-14.79-20.937-22.703c-4.966-6.221-9.214-13.171-12.836-20.278
	c-5.945-11.666-13.092-23.598-16.075-36.411c-4.35-18.68-4.541-35.979-4.741-54.898c2.53,10.031,7.59,19.585,12.859,28.424
	c1.596,2.678,6.407,12.864,10.845,9.309c3.009-2.41-3.24-7.455-4.584-9.753c-1.757-3.005-2.968-6.673-4.17-9.95
	c-5.383-14.674-10.056-36.019-5.232-51.097c5.089-15.907,15.317-27.916,26.466-40.047c19.8-21.543,40.386-42.574,55.683-67.77
	c-0.185,8.354,0.475,16.8,0.425,25.179c-0.069,11.61-1.828,23.758-0.783,35.284c-2.64,2.351-1.513,18.774-1.935,23.946
	c-0.475,5.836-1.209,11.672-2.018,17.473c-1.928,13.827-3.39,29.563-6.943,41.992c-3.073,10.749-12.269,21.132-20.475,28.162
	c-4.03,3.452-10.776,6.572-11.054,12.367c-0.295,6.164,5.916,9.276,8.935,13.89c2.047,3.128,1.109,3.063,1.337,6.142
	c0.607,8.218,5.952,14.33,10.652,20.983c1.809,2.56,13.728,22.028,17.431,13.419c2.012,9.048,5.556,19.263,9.311,26.974
	c-0.145-0.158-0.291-0.316-0.436-0.474c5.403,15.982,14.209,29.966,23.166,44.129c13.674,21.62,26.702,43.5,40.069,65.292
	c5.465,8.909,8.558,15.77,8.027,26.276c-0.968,19.166-13.752,34.949-16.256,53.682c-0.033-0.227-0.066-0.454-0.099-0.681
	c-2.133,8.052-8.206,16.51-11.273,24.531c-2.157,5.641-3.953,11.422-6.017,17.098c-5.783,15.908-12.474,31.448-18.271,47.358
	c-4.643,12.746-9.357,28.524-19.116,38.282c-5.416,5.415-13.146,2.806-19.752,7.163c-8.074,5.326-13.43,14.248-15.459,23.451
	c-1.291,5.857-5.02,32.845,3.966,32.456c-0.47,8.638-7.538,16.53-8.208,25.393c-0.658,8.697,2.451,18.944,4.545,27.433
	c2.205,8.939,5.344,20.875,10.203,28.635c4.156,6.637,8.71,8.297,14.924,11.983c4.793,2.843,4.87,2.858,10.868-0.542
	c23.853-13.522,19.184-44.555,17.383-66.989c-0.772-9.622,0.781-18.637,3.674-27.874c2.75-8.78,3.598-15.932,5.972-24.655
	c2.44-8.968,6.084-17.417,11.069-25.252c4.854-7.629,12.381-14.943,16.019-23.089c0.187,9.181,1.3,19.072,2.176,28.19
	c2.223,23.12,9.38,50.718,1.696,73.156c-3.136,9.157-8.06,16.061-8.831,26.027c-0.679,8.783-0.452,18.112,0.913,26.817
	c2.494,15.909,8.347,31.465,11.539,47.32c2.824,14.031,7.653,29.527,23.609,32.573c14.984,2.861,30.696-3.441,31.939-20.108
	c1.442-19.329-10.773-33.612-16.326-51.01c-3.243-10.163-3.852-20.711-3.148-31.294c0.238-3.572,1.199-7.526-0.927-10.694
	c-1.099-1.638-4.482-2.602-5.163-4.148c-1.274-2.891,0.138-8.448,0.262-11.672c1.162-30.054,6.226-59.201,10.585-88.884
	c4.695-31.967,12.601-65.134,16.68-95.491c0.918-6.832,0.583-16.365,3.087-22.826c2.572-6.635,12.397-13.727,17.662-18.887
	c10.591-10.378,25.292-21.917,23.446-38.364c-1.971-17.56-11.371-34.349-15.621-51.447c-1.855-7.463,0.243-15.753,0.856-23.347
	c0.899-11.124,3.157-22.12,4.922-33.138c3.165-19.754,9.623-38.518,14.002-57.967c0.579-2.573,1.164-9.889,2.949-11.946
	c1.617-1.863,3.965-1.271,5.778-1.926c10.65-3.846,20.545-10.991,29.978-17.237c4.291-2.841,12.576-6.092,9.912-11.846
	c-1.843-3.981-9.373-7.974-12.171-10.959c-7.784-8.306-15.35-17.322-22.015-26.55c-9.125-12.634-18.124-26.068-24.733-40.18
	c-5.624-12.009-7.588-22.932-6.343-36.41c0.565-6.114,1.828-12.306,3.2-18.297c1.734-7.569,6.405-16.296,5.957-24.113
	c-0.526-1.932,3.343-10.953,3.91-13.558c-0.198,2.455,4.392,6.504,5.936,8.525c5.256,6.879,9.409,14.451,14.99,21.102
	c3.733,4.448,8.577,11.427,14.875,11.464c5.247,0.031,16.648-6.367,18.568-10.619c4.16,5.98,7.789,12.237,11.54,18.476
	c7.731,12.857,11.329,27.988,18.696,40.985c-0.154-0.158-0.309-0.316-0.463-0.473c4.201,9.572,7.332,19.514,10.04,29.606
	c1.468,5.471,2.394,11.005,3.486,16.552c1.111,5.641,3.84,12.407,3.472,18.293c-0.387,6.203-5.96,12.6-10.405,16.777
	c-3.138,2.948-6.8,5.996-10.701,7.782c-1.835,0.84-4.503,0.387-5.906,2.067c-6.733,8.061,10.611,2.303,13.895,0.838
	c5.392-2.405,11.187-6.749,14.71-11.478c1.43,12.302,4.902,28.169-2.241,38.955c-2.494,3.767-5.205,7.357-8.155,10.783
	c-11.595,13.468-27.953,29.24-46.223,32.231c-6.565,1.074-12.926-0.272-19.067,0.036c-5.086,0.255-5.127,3.069-0.475,5.272
	c1.649,0.781,3.751,1.076,5.553,1.39c13.816,2.408,27.661-1.81,39.923-7.967c9.865-4.954,22.434-11.511,30.301-19.412
	c-1.953,12.225-4.94,24.451-8.227,36.359c-1.622,5.878-3.25,11.385-6.346,16.738c-1.191,2.06-4.186,4.651-2.227,7.107
	c2.853,3.577,6.965-4.725,7.992-6.597c7.412-13.515,9.409-30.461,12.518-45.329c0.705-3.372,0.647-8.811,2.034-11.841
	c0.992-2.167,3.146-3.683,4.968-5.455c3.487-3.391,9.094-8.708,11.045-13.49c-4.835,22.492-12.619,45.236-20.547,66.845
	c-4.932,13.442-11.57,26.268-19.115,38.46c-8.15,13.17-17.613,27.824-33.3,32.438c-5.568,1.638-10.088,1.908-15.535-0.394
	c-2.199-0.929-7.855-5.656-9.692-2.103c-3.449,6.673,18.694,9.757,23.565,8.69c9.237-2.022,29.505-10.49,34.231-18.877
	c-0.108,0.201-0.216,0.402-0.323,0.603c18.391-14.337,34.254-30.972,50.185-47.891c8.909-9.461,15.891-19.935,23.015-30.779
	c5.196-7.908,13.287-16.832,16.498-25.608c-4.937,18.701-12.225,38.012-21.163,55.184c-6.543,12.569-15.128,23.931-25.666,33.408
	c-1.745,1.57-6.889,4.482-4.104,7.417c2.157,2.273,4.857-1.19,6.22-2.261c3.898-3.062,7.239-6.83,10.771-10.278
	c4.913-4.796,9.601-9.359,13.649-14.977c12.569-17.443,23.025-37.234,30.776-57.273c9.788-25.303,17.115-52.73,17.922-79.986
	c0.522-17.635-0.383-38.24-6.311-55.078c5.673,6.823,11.299,13.843,15.728,20.588c4.672,7.114,9.027,14.742,12.297,22.607
	c4.436,10.669,5.399,21.967,8.298,33.034c1.702,5.462,0.462,17.917-0.245,24.94c-0.239,2.372-2.57,12.161,2.847,11.685
	c3.157-0.277,2.594-3.798,3.021-6.025c2.451-12.796,4.069-25.697,3.733-38.744c-0.581-22.541-11.662-47.366-24.161-65.922
	c-4.185-6.214-4.002-8.376-4.07-16.503c-0.032-3.767-0.095-7.468-0.686-11.196c-2.003-12.616-7.546-22.64-15.352-32.518
	c-16.102-20.378-39.765-32.976-62.962-43.878c-7.382-3.47-60.617-29.765-60.978-29.176c3.03-6.481,2.396-14.322,3.018-21.307
	c0.396-4.448,1.718-10.664,0.371-15.159c-2.067-6.9-10.807-7.61-13.157-14.202c-1.378-3.866-0.324-8.119-1.813-11.879
	c-1.379-3.48-4.288-6.131-6.87-8.751c-3.601-3.654-7.476-7.019-11.261-10.478c-5.64-5.154-12.532-15.464-20.026-17.39
	c4.428-6.742,4.034-16.125,3.167-23.732c-0.646-5.67-3.825-10.865-4.519-16.13c-0.175-1.33,0.482-2.699,0.8-4.261
	c1.284-6.306,1.863-11.812,1.475-18.284c-0.446-7.433-1.092-14.761-2.435-22.102c-2.66-14.541-8.978-32.283-17.69-42.65
	c-5.792-6.893-11.551-13.808-17.502-20.568c-4.355-4.947-8.777-9.817-13.644-14.274c-3.458-3.166-9.068-9.379-13.827-10.779
	c0.226,0.057,0.452,0.113,0.678,0.17c-8.107-5.562-14.947-12.658-23.684-17.601c-12.963-7.334-27.691-12.311-42.627-12.748
	c-13.641-0.399-28.409,5.362-39.129,13.436c-8.881,6.689-14.73,13.05-21.172,22.335c-13.039,18.793-19.091,40.808-20.641,63.647
	c-0.622,9.173,0.199,18.224,0.09,27.389c-0.151,12.826-3.134,23.651-7.021,35.626c-3.773,11.623-8.375,24.537-8.165,36.85
	c0.172,10.066,4.202,19.856,12.766,25.617c3.809,2.562,16.311,7.895,20.982,3.866c-10.906,14.731-20.004,30.034-33.162,43.093
	c-9.539,9.467-19.618,18.095-31.194,25.022c-12.172,7.284-24.331,11.875-37.75,16.198c-7.314,2.357-13.814,6.2-20.939,8.904
	c-6.686,2.537-12.851,4.567-19.199,8.181c-18.461,10.511-43.486,24.828-40.062,50.006c-0.091-0.21-0.182-0.42-0.273-0.63
	c0.27,7.661,3.589,14.337,4.172,21.661c0.292,3.664-1.473,5.046-3.898,8.547c-2.374,3.428-4.494,7.009-6.406,10.719
	c-9.445,18.327-10.961,38.835-12.882,59.047C293.257,544.576,296.115,559.801,298.876,574.503z M495.148,266.549
	c0.393,0.912-4.004,1.989-5.507,2.02c-4.306,0.088-7.365-2.847-9.533-6.393c-2.975-4.866-2.973-10.801-3.215-16.283
	C481.818,253.564,488.831,260.117,495.148,266.549z M822.702,404.109c12.053,5.338,24.864,13.832,33.093,24.102
	c5.311,6.628,9.477,14.002,12.133,22.09c1.26,3.837,1.94,7.617,2.06,11.632c0.044,1.469-1.179,6.855-0.262,7.796
	c-7.524-7.373-16.981-13.522-22.941-21.882c0.157,0.157,0.313,0.313,0.47,0.47c-6.273-13.794-13.911-26.709-21.501-39.807
	C824.888,406.936,823.871,405.469,822.702,404.109z M772.484,541.215c3.449-8.857,9.567-17.306,10.626-27.151
	c3.25,18.728-1.412,37.266-8.334,54.629C774.711,559.5,773.414,550.344,772.484,541.215z M742.108,437.161
	c4.08,10.051,13.84,22.208,17.915,34.152c5.461,16.009,12.073,33.746,10.053,50.737c-3.656-18.524-7.261-37.303-14.816-54.714
	C750.888,457.263,746.537,447.208,742.108,437.161z M733.511,364.424c21.422,16.933,48.982,30.928,65.537,51.846
	c-11.342-9.216-25.327-15.942-37.288-24.448c-4.996-3.553-29.319-17.559-28.192-25.855
	C733.55,365.453,733.531,364.939,733.511,364.424z M675.606,293.979c-0.151-2.504,5.387-6.6,6.89-6.396
	c2.116,0.287,7.568,6.44,9.005,7.585c2.017,1.607,4.028,3.323,6.151,4.775c-7.268,0.393-9.001,8.104-9.185,14.022
	C683.702,307.582,680.189,300.425,675.606,293.979z M672.95,228.108c0.437-6.243,0.593-13.062-1.199-19.079
	c5.574,6.726,7.797,14.348,7.643,23.04c-0.05,2.816-2.248,18.977-8.262,14.124C669.562,242.33,672.604,233.041,672.95,228.108z
	 M643.309,110.145c13.718,10.372,24.194,27.766,30.785,43.529c3.778,9.036,6.079,17.641,7.765,27.25
	c0.938,5.346,2.122,10.546,1.588,15.976c-0.305,3.098-1.488,6.132-1.689,9.23c-10.965-14.515-14.454-33.141-20.905-49.82
	c-5.461-14.118-10.35-28.448-15.8-42.572C644.593,112.482,644.012,111.284,643.309,110.145z M533.902,404.752
	c0.079-9.882,0.834-19.772,1.315-29.641c0.443-9.095,3.031-18.135,3.116-27.137c8.293,14.978,19.645,30.223,21.225,47.817
	c1.447,16.116-12.852,23.809-25.111,30.795C534.935,419.389,533.876,411.97,533.902,404.752z M407.244,477.731
	c0.479,2.341,0.953,4.706,1.213,7.081c-0.369-1.744-0.66-3.508-0.913-5.272C407.444,478.937,407.344,478.334,407.244,477.731z
	 M397.23,405.624c1.044-1.493,2.108-2.973,3.167-4.456c2.291-3.209,4.611-6.219,7.403-9.014
	c7.061-7.068,14.888-13.042,22.861-19.037c12.955-9.741,24.677-19.76,35.692-31.723c-9.96,14.036-19.553,26.903-32.392,38.342
	c-5.696,5.075-10.949,10.563-17.152,15.21c-6.712,5.029-14.197,8.4-21.14,12.969C394.575,408.047,396.309,406.941,397.23,405.624z
	 M327.389,443.197c0.455-0.455,2.699-14.85,3.957-17.383c2.862-5.757,6.282-11.335,10.168-16.46
	c7.775-10.252,19.124-14.215,28.048-22.58c2.718-0.385,9.753-6.053,13.751-8.201c6.504-3.495,13.112-6.481,19.973-9.201
	c6.35-2.517,12.7-5.231,19.137-7.505c-17.397,10.45-33.885,24.03-47.272,39.322c-7.525,8.596-13.211,17.586-22.859,23.777
	C343.604,430.54,334.645,435.732,327.389,443.197z"/>
</svg>
